
        <svg xmlns="http://www.w3.org/2000/svg" xmlns:xlink="http://www.w3.org/1999/xlink" version="1.1" width="3162.1621621621625" 
        height="972.9594324632114" viewBox="0 0 3162.1621621621625 972.9594324632114">
			
			<g transform="scale(8.108108108108109) translate(10, 10)">
				<defs id="SvgjsDefs1001"><linearGradient id="SvgjsLinearGradient1013"><stop id="SvgjsStop1014" stop-color="#2d388a" offset="0"></stop><stop id="SvgjsStop1015" stop-color="#00aeef" offset="1"></stop></linearGradient></defs><g id="SvgjsG1007" featureKey="pxMwYC-0" transform="matrix(1.11111544387058,0,0,1.11111544387058,-5.42930547909648,-5.556823888473415)" fill="url(#SvgjsLinearGradient1013)"><g xmlns="http://www.w3.org/2000/svg"><path d="M42.817,43.713c-2.543,2.415-6.376,2.188-8.789-0.364c-2.29-2.409-2.315-6.254,0.228-8.663   c2.423-2.289,6.376-2.188,8.671,0.229C45.343,37.459,45.231,41.418,42.817,43.713 M64.765,66.849   c-2.54,2.409-6.379,2.181-8.68-0.233c-2.404-2.546-2.302-6.248,0.239-8.669c2.414-2.29,6.253-2.312,8.662,0.228   C67.282,60.595,67.18,64.553,64.765,66.849"></path><path d="M55.196,55.787c-3.024,2.871-7.598,2.592-10.315-0.273c-2.876-3.023-2.888-7.592,0.131-10.457   c2.871-2.728,7.586-2.603,10.446,0.422C58.187,48.355,58.061,53.06,55.196,55.787"></path><path d="M32.499,54.221c-1.902,1.801-5,1.607-6.809-0.301c-1.809-1.914-1.726-4.882,0.185-6.688   c1.905-1.811,4.998-1.856,6.806,0.052C34.493,49.191,34.41,52.41,32.499,54.221"></path><path d="M51.665,74.429c-1.902,1.812-4.875,1.731-6.681-0.171c-1.814-1.907-1.854-5.012,0.057-6.817   c1.902-1.816,5.126-1.72,6.932,0.183C53.783,69.531,53.573,72.624,51.665,74.429"></path><g><path d="M27.892,15.099c-0.84-0.883-0.803-2.37,0.213-3.338c0.889-0.843,2.375-0.809,3.224,0.08    c0.966,1.025,0.929,2.5,0.032,3.349C30.349,16.158,28.863,16.118,27.892,15.099"></path><path d="M11.468,30.494c-0.843-0.889-0.8-2.364,0.088-3.213c1.022-0.969,2.5-0.928,3.349-0.045    c0.962,1.02,0.925,2.506-0.094,3.474C13.92,31.553,12.434,31.52,11.468,30.494"></path><path d="M5.85,22.719c-0.689-0.723-0.655-1.93,0.065-2.619c0.832-0.792,2.042-0.764,2.729-0.029    c0.789,0.826,0.754,2.028-0.077,2.814C7.846,23.574,6.636,23.551,5.85,22.719"></path><path d="M20.732,8.207c-0.692-0.729-0.658-1.931,0.068-2.626c0.826-0.786,2.036-0.751,2.725-0.028    c0.786,0.832,0.752,2.039-0.077,2.825C22.726,9.067,21.516,9.039,20.732,8.207"></path><path d="M9.529,11.208c-0.846-0.894-0.803-2.381,0.08-3.229c0.889-0.837,2.381-0.797,3.232,0.097    c0.954,1.008,0.915,2.5,0.026,3.343C11.978,12.262,10.492,12.217,9.529,11.208"></path><path d="M35.521,23.949c-1.449-1.521-1.256-3.867,0.146-5.194c1.523-1.446,3.748-1.39,5.194,0.132    c1.327,1.406,1.267,3.633-0.25,5.074C39.206,25.299,36.851,25.356,35.521,23.949"></path><path d="M18.106,40.467c-1.444-1.521-1.384-3.754,0.137-5.195c1.401-1.32,3.753-1.389,5.2,0.137    c1.324,1.402,1.145,3.754-0.256,5.075C21.661,41.93,19.434,41.873,18.106,40.467"></path><path d="M16.221,20.811c-1.327-1.4-1.139-3.753,0.253-5.08c1.527-1.446,3.756-1.384,5.081,0.018    c1.453,1.521,1.396,3.753-0.134,5.199C20.023,22.275,17.671,22.338,16.221,20.811"></path><path d="M24.976,31.57c-1.8-1.902-1.598-4.99,0.305-6.807c1.917-1.811,4.89-1.726,6.692,0.183    c1.811,1.902,1.856,5.001-0.057,6.812C30.007,33.569,26.79,33.479,24.976,31.57"></path></g><g><path d="M84.46,72.595c0.871,0.866,2.357,0.854,3.337-0.142c0.866-0.872,0.854-2.358-0.017-3.219    c-1.003-0.985-2.478-0.979-3.344-0.103C83.457,70.123,83.457,71.604,84.46,72.595"></path><path d="M68.717,88.696c0.878,0.86,2.358,0.854,3.225-0.017c0.99-1.003,0.979-2.483,0.113-3.35    c-1.002-0.979-2.494-0.968-3.475,0.023C67.715,86.225,67.727,87.711,68.717,88.696"></path><path d="M76.378,94.478c0.712,0.7,1.919,0.694,2.626-0.012c0.809-0.809,0.797-2.021,0.085-2.723    c-0.814-0.803-2.021-0.803-2.831,0.012C75.563,92.467,75.563,93.675,76.378,94.478"></path><path d="M91.197,79.908c0.712,0.695,1.926,0.695,2.626-0.022c0.809-0.81,0.798-2.022,0.091-2.723    c-0.814-0.809-2.027-0.798-2.83,0.022C90.383,77.892,90.383,79.105,91.197,79.908"></path><path d="M87.957,91.043c0.883,0.854,2.369,0.849,3.234-0.022c0.86-0.866,0.854-2.364-0.022-3.224    c-0.991-0.98-2.483-0.975-3.349-0.103C86.96,88.565,86.978,90.058,87.957,91.043"></path><path d="M75.769,64.786c1.486,1.481,3.839,1.339,5.194-0.028c1.48-1.492,1.469-3.719-0.023-5.194    c-1.378-1.361-3.604-1.35-5.08,0.143C74.504,61.079,74.39,63.437,75.769,64.786"></path><path d="M58.887,81.856c1.492,1.48,3.719,1.464,5.206-0.029c1.35-1.378,1.458-3.719-0.034-5.199    c-1.379-1.355-3.726-1.23-5.081,0.147C57.509,78.273,57.52,80.501,58.887,81.856"></path><path d="M78.508,84.146c1.367,1.361,3.725,1.219,5.075-0.147c1.486-1.504,1.469-3.726,0.097-5.081    c-1.492-1.475-3.726-1.47-5.2,0.028C77.118,80.312,77.01,82.676,78.508,84.146"></path><path d="M67.92,75.164c1.868,1.851,4.967,1.708,6.823-0.16c1.846-1.868,1.822-4.841-0.046-6.691    c-1.868-1.852-4.966-1.96-6.812-0.086C66.029,70.101,66.052,73.318,67.92,75.164"></path></g><path d="M53.373,34.127c1.88-1.84,1.8-4.943-0.034-6.817c-1.845-1.88-4.812-1.913-6.692-0.073   c-1.882,1.834-2.042,4.926-0.205,6.806C48.282,35.922,51.505,35.961,53.373,34.127"></path><path d="M72.841,54.051c1.88-1.834,1.919-4.812,0.091-6.688c-1.845-1.885-4.943-2.039-6.823-0.205   c-1.879,1.834-1.913,5.059-0.079,6.938C67.863,55.976,70.961,55.891,72.841,54.051"></path><path d="M56.176,42.927c-2.409-2.546-2.188-6.384,0.364-8.788c2.415-2.289,6.254-2.312,8.669,0.229   c2.278,2.414,2.176,6.379-0.239,8.662C62.43,45.444,58.477,45.336,56.176,42.927 M33.041,64.866   c-2.407-2.54-2.179-6.379,0.236-8.663c2.54-2.414,6.256-2.318,8.663,0.223c2.292,2.415,2.315,6.259-0.225,8.668   C39.294,67.39,35.335,67.287,33.041,64.866"></path><g><path d="M84.79,27.999c0.889-0.843,2.381-0.798,3.338,0.21c0.843,0.895,0.797,2.376-0.08,3.219    c-1.02,0.975-2.506,0.934-3.349,0.04C83.73,30.453,83.776,28.967,84.79,27.999"></path><path d="M69.39,11.584c0.888-0.843,2.381-0.809,3.224,0.08c0.968,1.02,0.923,2.494,0.034,3.35    c-1.014,0.968-2.506,0.922-3.469-0.092C68.336,14.021,68.376,12.547,69.39,11.584"></path><path d="M77.17,5.957c0.723-0.689,1.936-0.655,2.625,0.068c0.786,0.832,0.758,2.034,0.023,2.723    C78.998,9.54,77.79,9.5,76.999,8.674C76.31,7.945,76.344,6.743,77.17,5.957"></path><path d="M91.682,20.834c0.729-0.684,1.937-0.654,2.626,0.068c0.78,0.832,0.752,2.045,0.028,2.729    c-0.832,0.785-2.039,0.752-2.825-0.074C90.827,22.833,90.851,21.62,91.682,20.834"></path><path d="M88.686,9.637c0.889-0.849,2.375-0.809,3.219,0.08c0.849,0.889,0.803,2.381-0.086,3.224    c-1.014,0.957-2.506,0.923-3.349,0.034C87.632,12.091,87.672,10.599,88.686,9.637"></path><path d="M75.939,35.625c1.515-1.44,3.873-1.253,5.2,0.148c1.44,1.521,1.384,3.742-0.143,5.194    c-1.396,1.327-3.623,1.265-5.075-0.257C74.595,39.316,74.538,36.952,75.939,35.625"></path><path d="M59.422,18.214c1.521-1.44,3.748-1.39,5.2,0.137c1.327,1.401,1.384,3.748-0.143,5.2c-1.4,1.327-3.747,1.145-5.074-0.256    C57.964,21.768,58.021,19.541,59.422,18.214"></path><path d="M79.071,16.328c1.407-1.332,3.76-1.139,5.093,0.257c1.446,1.521,1.378,3.753-0.018,5.081    c-1.532,1.446-3.759,1.395-5.2-0.137C77.619,20.133,77.557,17.775,79.071,16.328"></path><path d="M68.312,25.088c1.908-1.799,5.001-1.6,6.812,0.303c1.806,1.914,1.72,4.881-0.183,6.687    c-1.908,1.812-5.001,1.856-6.812-0.052C66.325,30.117,66.41,26.9,68.312,25.088"></path></g><g><path d="M27.291,84.562c-0.866,0.877-0.852,2.363,0.14,3.343c0.877,0.866,2.364,0.86,3.227-0.017    c0.988-0.997,0.977-2.483,0.105-3.344C29.766,83.564,28.285,83.564,27.291,84.562"></path><path d="M11.189,68.83c-0.854,0.872-0.854,2.358,0.022,3.219c1,0.99,2.48,0.979,3.349,0.107c0.985-0.996,0.968-2.483-0.02-3.474    C13.664,67.816,12.178,67.834,11.189,68.83"></path><path d="M5.408,76.485c-0.7,0.718-0.695,1.919,0.012,2.625c0.817,0.81,2.03,0.798,2.728,0.086c0.812-0.809,0.8-2.021-0.017-2.825    C7.422,75.671,6.211,75.677,5.408,76.485"></path><path d="M19.986,91.311c-0.701,0.712-0.698,1.914,0.014,2.62c0.812,0.803,2.022,0.798,2.725,0.091c0.8-0.82,0.8-2.027-0.02-2.824    C21.997,90.49,20.789,90.49,19.986,91.311"></path><path d="M8.849,88.075c-0.857,0.872-0.857,2.358,0.02,3.229c0.868,0.854,2.36,0.849,3.226-0.028    c0.971-0.991,0.968-2.483,0.103-3.349C11.323,87.073,9.834,87.085,8.849,88.075"></path><path d="M35.102,75.87c-1.478,1.492-1.341,3.845,0.029,5.2c1.5,1.48,3.725,1.469,5.2-0.023c1.361-1.378,1.347-3.604-0.148-5.08    C38.815,74.605,36.455,74.497,35.102,75.87"></path><path d="M18.033,58.994c-1.478,1.498-1.461,3.725,0.028,5.2c1.378,1.355,3.725,1.464,5.2-0.028    c1.355-1.373,1.23-3.726-0.143-5.081C21.624,57.61,19.388,57.621,18.033,58.994"></path><path d="M15.746,78.609c-1.364,1.373-1.222,3.73,0.146,5.086c1.495,1.476,3.722,1.464,5.081,0.098    c1.483-1.51,1.472-3.731-0.026-5.212C19.576,77.231,17.218,77.117,15.746,78.609"></path><path d="M24.719,68.027c-1.845,1.874-1.703,4.973,0.165,6.817c1.871,1.856,4.847,1.828,6.687-0.04    c1.851-1.868,1.962-4.966,0.094-6.812C29.791,66.142,26.57,66.165,24.719,68.027"></path></g></g></g><g id="SvgjsG1008" featureKey="Vx5QiU-0" transform="matrix(2.5789147277060187,0,0,2.5789147277060187,115.9768925574841,7.311739342930808)" fill="#004aac"><path d="M10.63 6.08 q1.33 0.7 2.05 1.89 t0.72 2.65 t-0.67 2.62 t-2.01 1.83 t-3.24 0.67 l-2.76 0 l0 4.26 l-3.16 0 l0 -14.62 l5.94 0 q1.8 0 3.13 0.7 z M9.64 12.3 q0.58 -0.7 0.58 -1.68 q0 -0.64 -0.3 -1.21 t-0.89 -0.93 t-1.41 -0.36 l-2.9 0 l0 4.88 l3.22 0 q1.12 0 1.7 -0.7 z M15.28 20 l0 -14.62 l6.5 0 q1.56 0 2.76 0.64 t1.86 1.8 t0.66 2.64 q0 1.58 -0.8 2.82 t-2.18 1.82 q1.42 1.8 3.78 4.9 l-3.78 0 q-1.28 -1.6 -3.5 -4.56 l-2.16 0 l0 4.56 l-3.14 0 z M21.78 12.7 q0.82 0 1.48 -0.59 t0.66 -1.65 q0 -0.86 -0.46 -1.6 t-1.68 -0.74 l-3.36 0 l0 4.58 l3.36 0 z M33.04 19.26 q-1.8 -1.02 -2.86 -2.77 t-1.06 -3.81 q0 -2.04 1.06 -3.79 t2.86 -2.77 t3.94 -1.02 t3.96 1.02 t2.88 2.77 t1.06 3.79 q0 2.06 -1.06 3.81 t-2.88 2.77 t-3.96 1.02 t-3.94 -1.02 z M34.62 8.63 q-1.08 0.65 -1.72 1.73 t-0.64 2.32 t0.64 2.33 t1.72 1.75 t2.36 0.66 t2.37 -0.66 t1.72 -1.75 t0.63 -2.33 t-0.63 -2.32 t-1.72 -1.73 t-2.37 -0.65 t-2.36 0.65 z M50.62 11.34 l6.98 0 l0 2.74 l-6.98 0 l0 5.92 l-3.18 0 l0 -14.62 l11.08 0 l0 2.74 l-7.9 0 l0 3.22 z M61.18 20 l0 -14.62 l3.16 0 l0 14.62 l-3.16 0 z M71.04 20 l-3.14 0 l0 -15.08 l10.08 8.92 l0 -8.44 l3.16 0 l0 15.06 l-10.1 -8.78 l0 8.32 z M83.02 5.4 l3.98 0 l3.78 5.04 l3.78 -5.04 l3.94 0 l-5.74 7.36 l5.64 7.24 l-3.96 0 l-3.66 -4.86 l-3.66 4.86 l-3.98 0 l5.66 -7.24 z"></path></g><g id="SvgjsG1009" featureKey="aAUSXE-0" transform="matrix(0.5981075867194854,0,0,0.5981075867194854,144.04302763308888,67.78700304141759)" fill="#079ef7"><path d="M13 15.42 q0 1 -0.41 1.85 t-1.09 1.46 t-1.57 0.95 t-1.87 0.34 l-6.46 -0.02 l0 -16 l5.76 0 q1.04 0 1.93 0.31 t1.55 0.9 t1.03 1.44 t0.37 1.91 q0 0.9 -0.4 1.74 t-1.06 1.42 q0.52 0.26 0.93 0.66 t0.7 0.89 t0.44 1.04 t0.15 1.11 z M9.18 8.62 q0 -0.58 -0.22 -1 t-0.59 -0.7 t-0.85 -0.42 t-1 -0.14 l-1.82 0 l0 4.4 q0.5 0.02 0.9 0.02 l0.92 0 t1 -0.12 t0.85 -0.38 t0.59 -0.67 t0.22 -0.99 z M9.78 15.24 q0 -0.5 -0.19 -0.92 t-0.52 -0.71 t-0.76 -0.45 t-0.93 -0.16 q-0.68 -0.02 -1.34 -0.01 t-1.34 0.01 l0 4.42 l2.32 0 q0.5 0 1 -0.12 t0.89 -0.39 t0.63 -0.68 t0.24 -0.99 z M37.776 9.38 q0 1.14 -0.43 2.13 t-1.17 1.72 t-1.74 1.14 t-2.12 0.41 l-2.64 0 l0 5.22 l-3.1 0 l0 -15.98 l5.74 0 q1.12 0 2.12 0.41 t1.74 1.13 t1.17 1.7 t0.43 2.12 z M34.696 9.34 q0 -0.62 -0.23 -1.16 t-0.63 -0.94 t-0.94 -0.64 t-1.16 -0.24 l-2.06 0 l0 6.04 l2.06 0 q0.62 0 1.16 -0.25 t0.94 -0.67 t0.63 -0.97 t0.23 -1.17 z M67.532 12 q0 1.72 -0.67 3.24 t-1.83 2.64 t-2.7 1.77 t-3.28 0.65 t-3.29 -0.65 t-2.71 -1.77 t-1.83 -2.63 t-0.67 -3.25 t0.67 -3.26 t1.83 -2.64 t2.71 -1.76 t3.29 -0.64 t3.28 0.64 t2.7 1.77 t1.83 2.64 t0.67 3.25 z M64.412 12 q0 -1.1 -0.42 -2.07 t-1.15 -1.7 t-1.71 -1.16 t-2.08 -0.43 q-1.12 0 -2.1 0.43 t-1.71 1.16 t-1.15 1.7 t-0.42 2.07 q0 1.08 0.42 2.06 t1.15 1.71 t1.71 1.16 t2.1 0.43 q1.1 0 2.08 -0.43 t1.71 -1.16 t1.15 -1.71 t0.42 -2.06 z M109.544 6.68 l-7.52 0 l0 3.72 l7.42 0 l0 2.52 l-7.42 0 l0 7.08 l-3.04 0 l0 -15.98 l10.56 0 l0 2.66 z M126.02 20 l-3.1 0 l0 -15.98 l3.1 0 l0 15.98 z M153.696 20 l-3.04 0 l-7.22 -11.22 l0 11.22 l-3.04 0 l0 -16 l3.48 0 l6.78 10.44 l0 -10.44 l3.04 0 l0 16 z M184.212 20 l-3.4 0 l-1.48 -3.2 l-7.76 0 l-1.5 3.2 l-3.4 0 l7.56 -16 l2.42 0 z M178.112 14.22 l-2.66 -5.76 l-2.7 5.76 l5.36 0 z M210.488 20 l-3.04 0 l-7.22 -11.22 l0 11.22 l-3.04 0 l0 -16 l3.48 0 l6.78 10.44 l0 -10.44 l3.04 0 l0 16 z M239.504 17.12 q-1.2 1.46 -2.91 2.32 t-3.77 0.86 q-1.78 0 -3.34 -0.65 t-2.72 -1.77 t-1.83 -2.63 t-0.67 -3.25 t0.67 -3.25 t1.83 -2.64 t2.72 -1.77 t3.34 -0.64 q2.06 0 3.77 0.86 t2.85 2.24 l-2.14 2.2 q-0.74 -1.06 -1.91 -1.71 t-2.57 -0.65 q-1.12 0 -2.11 0.43 t-1.73 1.16 t-1.17 1.7 t-0.43 2.07 q0 1.08 0.43 2.05 t1.17 1.7 t1.73 1.16 t2.11 0.43 q1.48 0 2.62 -0.67 t1.9 -1.77 z M263.04 20 l-10.56 0 l0 -15.98 l10.56 0 l0 2.56 l-7.52 0 l0 3.82 l7.42 0 l0 2.5 l-7.42 0 l0 4.4 l7.52 0 l0 2.7 z M279.916 20 l-3.1 0 l0 -15.98 l3.1 0 l0 15.98 z M306.332 20 l-3.42 0 l-1.14 -3.64 q-0.18 -0.6 -0.45 -1.1 t-0.65 -0.86 t-0.91 -0.56 t-1.25 -0.2 l-1.16 0 l0 6.36 l-3.06 0 l0 -15.98 l6.32 -0.02 q1.02 0 1.9 0.35 t1.52 0.97 t1 1.46 t0.36 1.82 q0 0.7 -0.22 1.36 t-0.62 1.22 t-0.95 0.99 t-1.21 0.65 q0.76 0.28 1.24 0.81 t0.76 1.27 q0.14 0.34 0.26 0.68 t0.25 0.71 t0.28 0.8 t0.33 0.95 q0.22 0.66 0.41 1.13 t0.41 0.83 z M302.272 8.82 q0 -0.56 -0.21 -1.02 t-0.57 -0.8 t-0.85 -0.53 t-1.05 -0.19 l-2.24 0 l0 4.98 l2.24 0 q0.56 0 1.05 -0.17 t0.85 -0.49 t0.57 -0.77 t0.21 -1.01 z M335.988 12 q0 1.72 -0.67 3.24 t-1.83 2.64 t-2.7 1.77 t-3.28 0.65 t-3.29 -0.65 t-2.71 -1.77 t-1.83 -2.63 t-0.67 -3.25 t0.67 -3.26 t1.83 -2.64 t2.71 -1.76 t3.29 -0.64 t3.28 0.64 t2.7 1.77 t1.83 2.64 t0.67 3.25 z M332.868 12 q0 -1.1 -0.42 -2.07 t-1.15 -1.7 t-1.71 -1.16 t-2.08 -0.43 q-1.12 0 -2.1 0.43 t-1.71 1.16 t-1.15 1.7 t-0.42 2.07 q0 1.08 0.42 2.06 t1.15 1.71 t1.71 1.16 t2.1 0.43 q1.1 0 2.08 -0.43 t1.71 -1.16 t1.15 -1.71 t0.42 -2.06 z"></path></g>
			</g>
		</svg>
	