<?xml version="1.0" encoding="UTF-8" standalone="no"?>
<!-- Creator: CorelDRAW 2020 (64 Bit) -->

<svg
   xml:space="preserve"
   width="1725.6956"
   height="728.49261"
   version="1.1"
   style="clip-rule:evenodd;fill-rule:evenodd;image-rendering:optimizeQuality;shape-rendering:geometricPrecision;text-rendering:geometricPrecision"
   viewBox="0 0 45659.028 19274.7"
   id="svg4"
   xmlns="http://www.w3.org/2000/svg"
   xmlns:svg="http://www.w3.org/2000/svg">
 <defs
   id="defs1"><style
     type="text/css"
     id="style1">
   <![CDATA[
    .fil1 {fill:#FEFEFE}
    .fil0 {fill:#FEFEFE;fill-rule:nonzero}
   ]]>
  </style></defs>
 <g
   id="Camada_x0020_1"
   transform="translate(-3628.8195,-16820.983)">
  <metadata
   id="CorelCorpID_0Corel-Layer" />
  <g
   id="_2430048354880"
   transform="matrix(2.1979558,0,0,2.1979558,-6180.1298,3364.1305)">
   <path
   class="fil0"
   d="M 9296.24,13449.06 H 4462.76 c 0,0 0,-4484.328 0,-6074.56 0,-691.49 560.5,-1252.06 1252.01,-1252.06 h 3652.5 v 1236.89 c -450.98,49.23 -805.41,177.43 -1063.29,384.65 -338.21,271.78 -510.33,664.35 -516.37,1177.72 0,247.61 36.23,468.05 108.71,661.32 72.47,193.26 196.28,363.88 371.42,511.84 175.15,147.98 407.69,285.38 697.58,412.2 l 1313.59,561.69 c 175.16,72.47 314.06,143.43 416.73,212.88 102.67,69.47 175.15,147.98 217.43,235.55 42.28,87.58 63.4,188.73 63.4,303.49 0,247.62 -89.07,430.32 -267.24,548.08 -178.16,117.78 -451.46,176.66 -819.86,176.66 -374.47,0 -652.27,-67.94 -833.46,-203.83 -181.18,-135.89 -271.78,-351.81 -271.78,-647.75 6.04,-90.59 -30.19,-135.88 -108.7,-135.88 h -851.59 c -72.48,0 -114.74,51.34 -126.82,154 -42.29,555.65 111.72,988.99 462.02,1300.01 262.27,232.88 641.35,378.58 1137.2,437.1 z m 1024.53,-7326.62 h 216.6 c 691.44,0 1252,560.57 1252,1252.06 v 782.68 c -10.76,-18.77 -22,-37.23 -33.79,-55.35 -163.06,-250.64 -409.17,-440.9 -738.33,-570.75 -204.71,-80.75 -436.87,-136.39 -696.48,-166.91 z m 1468.6,3140.2 v 1578.12 c -57.53,-74.95 -124.65,-145.44 -201.38,-211.39 -172.13,-147.97 -406.16,-282.35 -702.09,-403.14 L 9590.41,9673.61 c -181.19,-78.51 -324.62,-154 -430.31,-226.48 -105.69,-72.47 -179.69,-152.5 -221.97,-240.07 -42.26,-87.57 -63.4,-188.73 -63.4,-303.49 0,-217.42 78.51,-380.49 235.54,-489.2 157.02,-108.72 389.55,-163.06 697.56,-163.06 350.3,0 620.6,70.97 810.81,212.89 190.22,141.91 277.48,393.9 258.19,635.37 -4.83,60.49 0,102.68 18.12,126.84 18.11,24.15 45.29,36.23 81.52,36.23 z"
   id="path1" />
   <path
   class="fil0"
   d="m 24582.76,13446.21 c -32.56,0 -55.64,-10.87 -69.21,-32.58 -13.58,-21.72 -29.93,-47.77 -36.66,-81.43 -9.64,-48.21 -20.17,-237.31 -39.17,-373.04 -11.34,-80.93 -20.25,-158.97 -26.76,-234.12 -139.67,140.2 -271.91,258.96 -396.74,356.28 -160.16,124.88 -320.32,217.18 -480.5,276.91 -160.16,59.71 -329.82,89.58 -508.99,89.58 -320.33,0 -564.64,-96.37 -732.95,-289.12 -168.31,-192.74 -252.47,-470.99 -252.47,-834.75 0,-282.32 54.3,-513.08 162.88,-692.24 108.59,-179.17 286.39,-317.62 533.43,-415.35 247.03,-97.73 576.87,-162.87 989.5,-195.44 l 635.22,-54.07 v -328.7 c 0,-255.19 -50.22,-435.71 -150.66,-541.58 -100.45,-105.88 -275.53,-158.81 -525.29,-158.81 -456.06,0 -681.37,160.17 -675.94,480.5 0,59.72 -27.15,89.58 -81.45,89.58 h -627.08 c -59.72,0 -92.3,-48.86 -97.73,-146.59 -27.15,-336.62 95.01,-604.02 366.48,-802.19 271.47,-198.16 651.52,-297.25 1140.15,-297.25 499.5,0 868.7,112.66 1107.59,337.98 238.89,225.31 358.33,568.72 358.33,1030.21 v 1718.38 c 0,184.59 5.44,352.9 16.29,504.93 10.86,152.01 26,381.31 43.25,495.18 9.89,65.3 -19.01,97.73 -89.58,97.73 z m -222.42,-1315.86 v -609.95 l -610.79,54.29 c -342.05,27.15 -579.58,89.59 -712.61,187.31 -133.01,97.73 -199.52,260.6 -199.52,488.64 0,173.74 35.29,304.04 105.87,390.9 70.58,86.88 179.17,130.31 325.77,130.31 168.3,0 344.75,-57.01 529.36,-171.02 150.98,-93.26 338.3,-250.09 561.92,-470.48 z"
   id="path2" />
   <path
   class="fil0"
   d="m 14486.34,13446.51 c -559.22,0 -988.13,-135.73 -1286.75,-407.2 -298.62,-271.47 -447.92,-681.38 -447.92,-1229.74 v -912.13 c 0,-548.36 147.95,-958.27 443.85,-1229.74 295.89,-271.46 726.17,-407.2 1290.82,-407.2 559.22,0 986.78,135.74 1282.68,407.2 295.89,271.47 443.85,681.38 443.85,1229.74 v 912.13 c 0,548.36 -146.59,958.27 -439.78,1229.74 -293.18,271.47 -722.1,407.2 -1286.75,407.2 z m 0,-708.53 c 320.33,0 552.43,-81.44 696.31,-244.31 143.88,-162.89 215.81,-415.35 215.81,-757.4 v -765.53 c 0,-336.62 -71.93,-587.72 -215.81,-753.32 -143.88,-165.59 -375.98,-248.39 -696.31,-248.39 -325.76,0 -560.58,82.8 -704.46,248.39 -143.87,165.6 -215.81,416.7 -215.81,753.32 v 765.53 c 0,342.05 71.94,594.51 215.81,757.4 143.88,162.87 378.7,244.31 704.46,244.31 z"
   id="path3" />
   <path
   class="fil1"
   d="m 20232.76,9261.63 h 747.47 12.41 c 10.85,0 21.22,2.21 30.66,6.21 l 0.12,0.05 c 31.56,10.66 49.01,34.82 48.47,72.08 l 0.01,0.93 v 4025.51 c 0,43.58 -35.69,79.26 -79.26,79.26 h -759.88 c -43.57,0 -79.26,-35.66 -79.26,-79.26 v -3304.06 h -1797.42 l -424.87,2639.07 c -54.47,343.17 -129.38,653.65 -224.7,931.44 -95.33,277.81 -215.16,520.2 -359.51,727.18 -144.34,207 -325.45,378.58 -543.34,514.75 -38.12,27.24 -76.24,21.79 -114.38,-16.33 l -441.21,-482.07 c -43.58,-49.02 -35.4,-100.77 24.51,-155.24 125.28,-108.94 235.58,-239.67 330.91,-392.19 95.33,-152.51 175.66,-324.09 241.04,-514.74 65.36,-190.65 117.11,-403.09 155.23,-637.31 l 408.53,-2614.56 h -580.11 c -59.91,0 -87.15,-29.96 -81.7,-89.88 l 89.87,-612.79 c 10.9,-65.37 46.3,-98.05 106.22,-98.05 h 596.45 l 65.36,-392.19 c 65.36,-419.42 223.33,-735.34 473.89,-947.79 250.57,-212.43 596.46,-318.64 1037.66,-318.64 163.41,0 328.18,12.25 494.32,36.76 166.13,24.52 306.4,64 420.78,118.48 49.03,16.34 68.09,51.74 57.2,106.22 l -89.88,596.45 c -10.89,65.36 -46.3,87.14 -106.21,65.36 -114.39,-49.03 -226.06,-84.43 -334.99,-106.21 -108.95,-21.79 -228.79,-32.69 -359.51,-32.69 -196.09,0 -348.61,43.57 -457.55,130.73 -108.93,87.15 -177.03,223.32 -204.27,408.53 l -49.02,334.99 z"
   id="path4" />
  </g>
 </g>
</svg>
